<?xml version="1.0" encoding="utf-8" standalone="yes"?>
<!DOCTYPE svg PUBLIC "-//W3C//DTD SVG 1.1//EN" "http://www.w3.org/Graphics/SVG/1.1/DTD/svg11.dtd">
<svg width="74" height="74" viewBox="0 0 74 74" style="fill:none;stroke:none;fill-rule:evenodd;clip-rule:evenodd;stroke-linecap:round;stroke-linejoin:round;stroke-miterlimit:1.5;" version="1.1" xmlns="http://www.w3.org/2000/svg" xmlns:xlink="http://www.w3.org/1999/xlink"><g id="items" style="isolation: isolate"><g id="blend" style="mix-blend-mode: normal"><g id="g-root-sett_hxrs7k1hv4zri-fill" data-item-order="1000000000" transform="translate(3, 3)"></g><g id="g-root-sett_hxrs7k1hv4zri-stroke" data-item-order="1000000000" transform="translate(3, 3)"><g id="sett_hxrs7k1hv4zri-stroke" fill="none" stroke-linecap="round" stroke-linejoin="round" stroke-miterlimit="4" stroke="#484848" stroke-width="2"><g><path d="M 41.688 44.071999C 41.688004 45.659267 42.974735 46.946003 44.562 46.946003C 46.149269 46.946003 47.436001 45.659267 47.436001 44.072002C 47.436001 42.484734 46.149269 41.198002 44.562 41.198002C 42.974735 41.198002 41.688004 42.484734 41.688004 44.072002ZM 47 32.950001L 47.848 35.734001C 48.136425 36.693451 49.119652 37.264668 50.096001 37.040001L 52.919998 36.386002C 54.017899 36.136703 55.149986 36.632782 55.710888 37.608959C 56.27179 38.585136 56.130268 39.813019 55.362 40.636002L 53.400002 42.765999C 52.718468 43.503296 52.718468 44.640709 53.400002 45.378002L 55.375999 47.506001C 56.143002 48.329571 56.283848 49.556816 55.723358 50.532738C 55.162868 51.508656 54.031876 52.005463 52.934002 51.757999L 50.110001 51.104C 49.133652 50.879333 48.150425 51.45055 47.862 52.41L 47 55.200001C 46.675915 56.277843 45.683514 57.015739 44.557999 57.015739C 43.432487 57.015739 42.440086 56.277843 42.116001 55.200001L 41.267998 52.416C 40.979542 51.455608 39.99501 50.884144 39.017998 51.110001L 36.195999 51.764C 35.098125 52.011459 33.967133 51.514656 33.406643 50.538738C 32.846153 49.562817 32.987 48.335571 33.753998 47.512001L 35.73 45.383999C 36.409615 44.645954 36.409615 43.510048 35.730003 42.772003L 33.753998 40.641998C 32.978729 39.819328 32.833694 38.586006 33.396965 37.605927C 33.960236 36.625847 35.098892 36.130283 36.199997 36.386002L 39.021999 37.040001C 39.999008 37.265858 40.983543 36.694393 41.272003 35.734001L 42.119999 32.950001C 42.446262 31.875484 43.437042 31.140877 44.560001 31.140877C 45.682957 31.140877 46.673737 31.875484 47 32.950001ZM 12.058001 19.007999L 52.057999 19.007999M 18.057999 14.507999L 18.057999 14.507999M 18.057999 14.507999C 17.781857 14.507999 17.558001 14.731857 17.558001 15.007999C 17.558001 15.284142 17.781857 15.507999 18.057999 15.507999C 18.334143 15.507999 18.557999 15.284142 18.557999 15.007999C 18.557999 14.731857 18.334143 14.507999 18.057999 14.507999M 22.057999 14.507999L 22.057999 14.507999M 22.057999 14.507999C 21.781857 14.507999 21.557999 14.731857 21.557999 15.007999C 21.557999 15.284142 21.781857 15.507999 22.057999 15.507999C 22.334143 15.507999 22.557999 15.284142 22.557999 15.007999C 22.557999 14.731857 22.334143 14.507999 22.057999 14.507999M 26.058001 14.507999L 26.058001 14.507999M 26.058001 14.507999C 25.781857 14.507999 25.557999 14.731857 25.557999 15.007999C 25.557999 15.284142 25.781857 15.507999 26.058001 15.507999C 26.334143 15.507999 26.558001 15.284142 26.558001 15.007999C 26.558001 14.731857 26.334143 14.507999 26.058001 14.507999M 28.058001 43L 16.058001 43C 13.848861 43 12.058001 41.209137 12.058001 39L 12.058001 15C 12.058001 12.790861 13.848861 11 16.058001 11L 48.057999 11C 50.267139 11 52.057999 12.790861 52.057999 15L 52.057999 31"></path></g></g></g></g></g></svg>