<?xml version="1.0" encoding="utf-8" standalone="yes"?>
<!DOCTYPE svg PUBLIC "-//W3C//DTD SVG 1.1//EN" "http://www.w3.org/Graphics/SVG/1.1/DTD/svg11.dtd">
<svg width="74" height="74" viewBox="0 0 74 74" style="fill:none;stroke:none;fill-rule:evenodd;clip-rule:evenodd;stroke-linecap:round;stroke-linejoin:round;stroke-miterlimit:1.5;" version="1.1" xmlns="http://www.w3.org/2000/svg" xmlns:xlink="http://www.w3.org/1999/xlink"><g id="items" style="isolation: isolate"><g id="blend" style="mix-blend-mode: normal"><g id="g-root-arro_vcdgi81jtamte-fill" data-item-order="1000000000" transform="translate(3, 3)"></g><g id="g-root-arro_vcdgi81jtamte-stroke" data-item-order="1000000000" transform="translate(3, 3)"><g id="arro_vcdgi81jtamte-stroke" fill="none" stroke-linecap="round" stroke-linejoin="round" stroke-miterlimit="4" stroke="#484848" stroke-width="2"><g><path d="M 13.796 45L 29 45M 15.024 21L 52.992001 21M 27 33L 11.022 33M 32.538002 11.052C 20.538 24.052 20.756001 40.968002 32.756001 56.967999M 35.459999 11.052C 39.941879 15.717068 42.917374 21.62207 44.000004 28.000002M 57 34C 57 21.297451 46.702549 11.000001 34 11.000001C 21.297451 11.000001 11.000001 21.297451 11.000001 34C 11.000001 46.702549 21.297451 57 34 57M 49.93 42.816002L 54.312 38.431999C 54.562191 38.181206 54.661026 37.816765 54.571823 37.473934C 54.48262 37.131104 54.218697 36.861046 53.877998 36.764L 32.077999 30.552C 31.729607 30.453686 31.35528 30.551334 31.099308 30.807308C 30.843334 31.06328 30.745686 31.437605 30.844 31.785999L 37.043999 53.585999C 37.140682 53.927509 37.41114 54.192181 37.754662 54.281452C 38.098179 54.370728 38.46328 54.271225 38.714001 54.02L 42.813999 49.922001L 49.178001 56.284C 49.568501 56.674381 50.2015 56.674381 50.591999 56.284L 56.293999 50.599998C 56.684383 50.209499 56.684383 49.5765 56.293999 49.186001Z"></path></g></g></g></g></g></svg>