<?xml version="1.0" encoding="utf-8" standalone="yes"?>
<!DOCTYPE svg PUBLIC "-//W3C//DTD SVG 1.1//EN" "http://www.w3.org/Graphics/SVG/1.1/DTD/svg11.dtd">
<svg width="74" height="74" viewBox="0 0 74 74" style="fill:none;stroke:none;fill-rule:evenodd;clip-rule:evenodd;stroke-linecap:round;stroke-linejoin:round;stroke-miterlimit:1.5;" version="1.1" xmlns="http://www.w3.org/2000/svg" xmlns:xlink="http://www.w3.org/1999/xlink"><g id="items" style="isolation: isolate"><g id="blend" style="mix-blend-mode: normal"><g id="g-root-brow_18isxwg1if8gen-fill" data-item-order="1000000000" transform="translate(3, 3)"></g><g id="g-root-brow_18isxwg1if8gen-stroke" data-item-order="1000000000" transform="translate(3, 3)"><g id="brow_18isxwg1if8gen-stroke" fill="none" stroke-linecap="round" stroke-linejoin="round" stroke-miterlimit="4" stroke="#484848" stroke-width="2"><g><path d="M 56.736 51.846001L 44.736 56.987999L 44.736 43.273998L 56.736 38.132L 56.736 51.846001ZM 32.736 51.846001L 44.736 56.987999L 44.736 43.273998L 32.736 38.132L 32.736 51.846001ZM 44.736 32.987999L 56.736 38.132L 44.736 43.273998L 32.736 38.132L 44.736 32.987999ZM 29 55.012001L 15 55.012001C 12.790861 55.012001 11 53.221138 11 51.012001L 11 15.012C 11 12.802861 12.790861 11.012 15 11.012L 53 11.012C 55.209141 11.012 57 12.802861 57 15.012L 57 33.012001M 11 21.012001L 57 21.012001M 18 15.512C 18.276142 15.512 18.5 15.735857 18.5 16.012001C 18.5 16.288143 18.276142 16.512001 18 16.512001C 17.723858 16.512001 17.5 16.288143 17.5 16.012001C 17.5 15.735857 17.723858 15.512 18 15.512M 24 15.512C 24.276142 15.512 24.5 15.735857 24.5 16.012001C 24.5 16.288143 24.276142 16.512001 24 16.512001C 23.723858 16.512001 23.5 16.288143 23.5 16.012001C 23.5 15.735857 23.723858 15.512 24 15.512M 30 15.512C 30.276142 15.512 30.5 15.735857 30.5 16.012001C 30.5 16.288143 30.276142 16.512001 30 16.512001C 29.723858 16.512001 29.5 16.288143 29.5 16.012001C 29.5 15.735857 29.723858 15.512 30 15.512"></path></g></g></g></g></g></svg>