<?xml version="1.0" encoding="utf-8" standalone="yes"?>
<!DOCTYPE svg PUBLIC "-//W3C//DTD SVG 1.1//EN" "http://www.w3.org/Graphics/SVG/1.1/DTD/svg11.dtd">
<svg width="74" height="74" viewBox="0 0 74 74" style="fill:none;stroke:none;fill-rule:evenodd;clip-rule:evenodd;stroke-linecap:round;stroke-linejoin:round;stroke-miterlimit:1.5;" version="1.1" xmlns="http://www.w3.org/2000/svg" xmlns:xlink="http://www.w3.org/1999/xlink"><g id="items" style="isolation: isolate"><g id="blend" style="mix-blend-mode: normal"><g id="g-root-grap_hs64ip1ipc83l-fill" data-item-order="1000000000" transform="translate(3, 3)"></g><g id="g-root-grap_hs64ip1ipc83l-stroke" data-item-order="1000000000" transform="translate(3, 3)"><g id="grap_hs64ip1ipc83l-stroke" fill="none" stroke-linecap="round" stroke-linejoin="round" stroke-miterlimit="4" stroke="#484848" stroke-width="2"><g><path d="M 14.98 30.219999C 14.899816 29.556355 14.859743 28.888474 14.860001 28.220001C 14.851564 21.009327 19.968395 14.810095 27.049921 13.451458C 34.131447 12.092822 41.179237 15.958193 43.84 22.66M 40.5 38.84L 44.84 43.18M 56 50.380001C 56.802612 51.127884 57.132996 52.254223 56.861542 53.317158C 56.590088 54.380089 55.76009 55.210087 54.697155 55.481541C 53.634224 55.752995 52.507885 55.422611 51.760002 54.620003L 44 46.84C 43.621376 46.464466 43.408401 45.953274 43.408401 45.419998C 43.408401 44.886726 43.621376 44.375534 44 44L 45.419998 42.580002C 45.795532 42.201374 46.306725 41.988403 46.84 41.988403C 47.373276 41.988403 47.884468 42.201374 48.259998 42.580002ZM 46.02 12.5L 54.02 12.5L 54.02 20.5M 44.880001 29.120001C 44.475258 35.92099 39.54364 41.597744 32.866005 42.949226C 26.188374 44.300705 19.43746 40.988373 16.42 34.880001M 54 12.5L 36.200001 30.32C 35.419926 31.095448 34.160072 31.095448 33.379997 30.32L 28.6 25.52C 27.819925 24.744553 26.560076 24.744553 25.779999 25.52L 11.1 40.200001"></path></g></g></g></g></g></svg>