<?xml version="1.0" encoding="utf-8" standalone="yes"?>
<!DOCTYPE svg PUBLIC "-//W3C//DTD SVG 1.1//EN" "http://www.w3.org/Graphics/SVG/1.1/DTD/svg11.dtd">
<svg width="74" height="74" viewBox="0 0 74 74" style="fill:none;stroke:none;fill-rule:evenodd;clip-rule:evenodd;stroke-linecap:round;stroke-linejoin:round;stroke-miterlimit:1.5;" version="1.1" xmlns="http://www.w3.org/2000/svg" xmlns:xlink="http://www.w3.org/1999/xlink"><g id="items" style="isolation: isolate"><g id="blend" style="mix-blend-mode: normal"><g id="g-root-1_1d1rlsx1lhayh6-fill" data-item-order="1000000000" transform="translate(3, 3)"></g><g id="g-root-1_1d1rlsx1lhayh6-stroke" data-item-order="1000000000" transform="translate(3, 3)"><g id="1_1d1rlsx1lhayh6-stroke" fill="none" stroke-linecap="round" stroke-linejoin="round" stroke-miterlimit="4" stroke="#484848" stroke-width="2"><g><path d="M 21.16 19C 21.569551 17.785582 22.718601 16.976393 24 17L 54 17C 54.820526 17.020878 55.598782 17.368404 56.162025 17.965445C 56.725273 18.562485 57.026913 19.359646 57 20.18L 57 43.82C 57.026913 44.64035 56.725273 45.437515 56.162025 46.034554C 55.598782 46.631596 54.820526 46.979122 54 47L 27 47M 30 51L 48 51M 39 47L 39 51M 37 41L 57 41M 17 29L 17 25C 17 23.895432 17.895432 23 19 23L 31 23C 32.104568 23 33 23.895432 33 25L 33 41C 33 42.104568 32.104568 43 31 43L 27 43M 27 39L 33 39M 13 33L 21 33C 21 33 23 33 23 35L 23 49C 23 49 23 51 21 51L 13 51C 13 51 11 51 11 49L 11 35C 11 35 11 33 13 33M 11 47L 23 47"></path></g></g></g></g></g></svg>