<?xml version="1.0" encoding="utf-8" standalone="yes"?>
<!DOCTYPE svg PUBLIC "-//W3C//DTD SVG 1.1//EN" "http://www.w3.org/Graphics/SVG/1.1/DTD/svg11.dtd">
<svg width="74" height="74" viewBox="0 0 74 74" style="fill:none;stroke:none;fill-rule:evenodd;clip-rule:evenodd;stroke-linecap:round;stroke-linejoin:round;stroke-miterlimit:1.5;" version="1.1" xmlns="http://www.w3.org/2000/svg" xmlns:xlink="http://www.w3.org/1999/xlink"><g id="items" style="isolation: isolate"><g id="blend" style="mix-blend-mode: normal"><g id="g-root-flas_4gppc01l7e5u4-fill" data-item-order="1000000000" transform="translate(3, 3)"></g><g id="g-root-flas_4gppc01l7e5u4-stroke" data-item-order="1000000000" transform="translate(3, 3)"><g id="flas_4gppc01l7e5u4-stroke" fill="none" stroke-linecap="round" stroke-linejoin="round" stroke-miterlimit="4" stroke="#484848" stroke-width="2"><g><path d="M 49.060001 29L 37.237999 43.764C 37.050217 43.987297 37.008537 44.299057 37.131073 44.563839C 37.253609 44.828621 37.518242 44.998627 37.809998 45L 43.060001 45L 43.060001 57L 54.882 42.236C 55.071568 42.013191 55.114281 41.700497 54.991417 41.435009C 54.868557 41.169521 54.602539 40.999702 54.310001 41L 49.060001 41ZM 13.059999 19.007999L 53.060001 19.007999M 19.060001 14.507999L 19.060001 14.507999M 19.060001 14.507999C 18.783857 14.507999 18.560001 14.731857 18.560001 15.007999C 18.560001 15.284142 18.783857 15.507999 19.060001 15.507999C 19.336143 15.507999 19.560001 15.284142 19.560001 15.007999C 19.560001 14.731857 19.336143 14.507999 19.060001 14.507999M 23.060001 14.507999L 23.060001 14.507999M 23.060001 14.507999C 22.783857 14.507999 22.560001 14.731857 22.560001 15.007999C 22.560001 15.284142 22.783857 15.507999 23.060001 15.507999C 23.336143 15.507999 23.560001 15.284142 23.560001 15.007999C 23.560001 14.731857 23.336143 14.507999 23.060001 14.507999M 27.059999 14.507999L 27.059999 14.507999M 27.059999 14.507999C 26.783857 14.507999 26.559999 14.731857 26.559999 15.007999C 26.559999 15.284142 26.783857 15.507999 27.059999 15.507999C 27.336142 15.507999 27.559999 15.284142 27.559999 15.007999C 27.559999 14.731857 27.336142 14.507999 27.059999 14.507999M 31.059999 43L 17.059999 43C 14.850861 43 13.059999 41.209137 13.059999 39L 13.059999 15C 13.059999 12.790861 14.850861 11 17.059999 11L 49.060001 11C 51.269138 11 53.060001 12.790861 53.060001 15L 53.060001 27"></path></g></g></g></g></g></svg>