<?xml version="1.0" encoding="utf-8" standalone="yes"?>
<!DOCTYPE svg PUBLIC "-//W3C//DTD SVG 1.1//EN" "http://www.w3.org/Graphics/SVG/1.1/DTD/svg11.dtd">
<svg width="74" height="74" viewBox="0 0 74 74" style="fill:none;stroke:none;fill-rule:evenodd;clip-rule:evenodd;stroke-linecap:round;stroke-linejoin:round;stroke-miterlimit:1.5;" version="1.1" xmlns="http://www.w3.org/2000/svg" xmlns:xlink="http://www.w3.org/1999/xlink"><g id="items" style="isolation: isolate"><g id="blend" style="mix-blend-mode: normal"><g id="g-root-page_1ut1g1c1kd8fm7-fill" data-item-order="1000000000" transform="translate(3, 3)"></g><g id="g-root-page_1ut1g1c1kd8fm7-stroke" data-item-order="1000000000" transform="translate(3, 3)"><g id="page_1ut1g1c1kd8fm7-stroke" fill="none" stroke-linecap="round" stroke-linejoin="round" stroke-miterlimit="4" stroke="#484848" stroke-width="2"><g><path d="M 53 21L 54 21C 55.652313 21.010906 56.989094 22.347685 57 24L 57 50C 56.989094 51.652313 55.652313 52.989094 54 53L 14 53C 12.347685 52.989094 11.010906 51.652313 11 50L 11 24C 11.010906 22.347685 12.347685 21.010906 14 21L 15 21M 24 57L 44 57M 34 53L 34 57M 19 41L 19 13C 19 11.895431 19.895432 11 21 11L 47 11C 48.104568 11 49 11.895431 49 13L 49 41M 24 25L 30 25C 30 25 31 25 31 26L 31 31C 31 31 31 32 30 32L 24 32C 24 32 23 32 23 31L 23 26C 23 26 23 25 24 25M 35.200001 31L 45 31M 35.200001 25L 45 25M 23 37L 45 37M 11 47L 57 47M 19 20L 49 20M 23.5 15C 23.776142 15 24 15.223858 24 15.5C 24 15.776142 23.776142 16 23.5 16C 23.223858 16 23 15.776142 23 15.5C 23 15.223858 23.223858 15 23.5 15M 28.5 15C 28.776142 15 29 15.223858 29 15.5C 29 15.776142 28.776142 16 28.5 16C 28.223858 16 28 15.776142 28 15.5C 28 15.223858 28.223858 15 28.5 15M 33.5 15C 33.776142 15 34 15.223858 34 15.5C 34 15.776142 33.776142 16 33.5 16C 33.223858 16 33 15.776142 33 15.5C 33 15.223858 33.223858 15 33.5 15"></path></g></g></g></g></g></svg>