<?xml version="1.0" encoding="utf-8" standalone="yes"?>
<!DOCTYPE svg PUBLIC "-//W3C//DTD SVG 1.1//EN" "http://www.w3.org/Graphics/SVG/1.1/DTD/svg11.dtd">
<svg width="62" height="62" viewBox="0 0 62 62" style="fill:none;stroke:none;fill-rule:evenodd;clip-rule:evenodd;stroke-linecap:round;stroke-linejoin:round;stroke-miterlimit:1.5;" version="1.1" xmlns="http://www.w3.org/2000/svg" xmlns:xlink="http://www.w3.org/1999/xlink"><g id="items" style="isolation: isolate"><g id="blend" style="mix-blend-mode: normal"><g id="g-root-effe_145h8uo1hl42dk-fill" data-item-order="1000000000" transform="translate(3, 3)"></g><g id="g-root-effe_145h8uo1hl42dk-stroke" data-item-order="1000000000" transform="translate(3, 3)"><g id="effe_145h8uo1hl42dk-stroke" fill="none" stroke-linecap="round" stroke-linejoin="round" stroke-miterlimit="4" stroke="#484848" stroke-width="2"><g><path d="M 42.25 30.25L 42.25 42.25C 42.25 43.906857 40.906857 45.25 39.25 45.25L 13.75 45.25C 12.093145 45.25 10.75 43.906857 10.75 42.25L 10.75 21.25C 10.75 19.593145 12.093145 18.25 13.75 18.25L 31.75 18.25M 10.75 25L 31.75 25M 16.375 21.25C 16.582108 21.25 16.75 21.417892 16.75 21.625C 16.75 21.832108 16.582108 22 16.375 22C 16.167892 22 16 21.832108 16 21.625C 16 21.417892 16.167892 21.25 16.375 21.25M 20.875 21.25C 21.082108 21.25 21.25 21.417892 21.25 21.625C 21.25 21.832108 21.082108 22 20.875 22C 20.667892 22 20.5 21.832108 20.5 21.625C 20.5 21.417892 20.667892 21.25 20.875 21.25M 25.375 21.25C 25.582108 21.25 25.75 21.417892 25.75 21.625C 25.75 21.832108 25.582108 22 25.375 22C 25.167892 22 25 21.832108 25 21.625C 25 21.417892 25.167892 21.25 25.375 21.25M 34.75 41.5L 30.895 32.635002C 30.78676 32.354004 30.520958 32.164986 30.219999 32.154999C 29.919653 32.14991 29.646435 32.328094 29.530001 32.605L 26.5 38.5L 23.5 35.5C 23.344322 35.315693 23.110826 35.215626 22.869999 35.23C 22.627472 35.245895 22.408484 35.380657 22.285 35.59L 18.25 41.5ZM 16.75 30.25C 16.75 31.492641 17.75736 32.5 19 32.5C 20.242641 32.5 21.25 31.492641 21.25 30.25C 21.25 29.00736 20.242641 28 19 28C 17.75736 28 16.75 29.00736 16.75 30.25M 36.25 10.75L 43.75 10.75C 43.75 10.75 45.25 10.75 45.25 12.25L 45.25 25.75C 45.25 25.75 45.25 27.25 43.75 27.25L 36.25 27.25C 36.25 27.25 34.75 27.25 34.75 25.75L 34.75 12.25C 34.75 12.25 34.75 10.75 36.25 10.75M 34.75 24.25L 45.25 24.25"></path></g></g></g></g></g></svg>