<?xml version="1.0" encoding="utf-8" standalone="yes"?>
<!DOCTYPE svg PUBLIC "-//W3C//DTD SVG 1.1//EN" "http://www.w3.org/Graphics/SVG/1.1/DTD/svg11.dtd">
<svg width="74" height="74" viewBox="0 0 74 74" style="fill:none;stroke:none;fill-rule:evenodd;clip-rule:evenodd;stroke-linecap:round;stroke-linejoin:round;stroke-miterlimit:1.5;" version="1.1" xmlns="http://www.w3.org/2000/svg" xmlns:xlink="http://www.w3.org/1999/xlink"><g id="items" style="isolation: isolate"><g id="blend" style="mix-blend-mode: normal"><g id="g-root-modu_6hf281kx3d3b-fill" data-item-order="1000000000" transform="translate(3, 3)"></g><g id="g-root-modu_6hf281kx3d3b-stroke" data-item-order="1000000000" transform="translate(3, 3)"><g id="modu_6hf281kx3d3b-stroke" fill="none" stroke-linecap="round" stroke-linejoin="round" stroke-miterlimit="4" stroke="#484848" stroke-width="2"><g><path d="M 50.094002 49.007999L 56.094002 49.007999C 56.094002 49.007999 57.094002 49.007999 57.094002 50.007999L 57.094002 56.007999C 57.094002 56.007999 57.094002 57.007999 56.094002 57.007999L 50.094002 57.007999C 50.094002 57.007999 49.094002 57.007999 49.094002 56.007999L 49.094002 50.007999C 49.094002 50.007999 49.094002 49.007999 50.094002 49.007999M 38.094002 49.007999L 44.094002 49.007999C 44.094002 49.007999 45.094002 49.007999 45.094002 50.007999L 45.094002 56.007999C 45.094002 56.007999 45.094002 57.007999 44.094002 57.007999L 38.094002 57.007999C 38.094002 57.007999 37.094002 57.007999 37.094002 56.007999L 37.094002 50.007999C 37.094002 50.007999 37.094002 49.007999 38.094002 49.007999M 44.094002 37.007999L 50.094002 37.007999C 50.094002 37.007999 51.094002 37.007999 51.094002 38.007999L 51.094002 44.007999C 51.094002 44.007999 51.094002 45.007999 50.094002 45.007999L 44.094002 45.007999C 44.094002 45.007999 43.094002 45.007999 43.094002 44.007999L 43.094002 38.007999C 43.094002 38.007999 43.094002 37.007999 44.094002 37.007999M 11.094 19.007999L 51.094002 19.007999M 17.094 14.507999L 17.094 14.507999M 17.094 14.507999C 16.817858 14.507999 16.594 14.731857 16.594 15.007999C 16.594 15.284142 16.817858 15.507999 17.094 15.507999C 17.370142 15.507999 17.594 15.284142 17.594 15.007999C 17.594 14.731857 17.370142 14.507999 17.094 14.507999M 21.094 14.507999L 21.094 14.507999M 21.094 14.507999C 20.817858 14.507999 20.594 14.731857 20.594 15.007999C 20.594 15.284142 20.817858 15.507999 21.094 15.507999C 21.370142 15.507999 21.594 15.284142 21.594 15.007999C 21.594 14.731857 21.370142 14.507999 21.094 14.507999M 25.094 14.507999L 25.094 14.507999M 25.094 14.507999C 24.817858 14.507999 24.594 14.731857 24.594 15.007999C 24.594 15.284142 24.817858 15.507999 25.094 15.507999C 25.370142 15.507999 25.594 15.284142 25.594 15.007999C 25.594 14.731857 25.370142 14.507999 25.094 14.507999M 37.094002 43L 15.094 43C 12.884861 43 11.094 41.209137 11.094 39L 11.094 15C 11.094 12.790861 12.884861 11 15.094 11L 47.094002 11C 49.303139 11 51.094002 12.790861 51.094002 15L 51.094002 33"></path></g></g></g></g></g></svg>