<?xml version="1.0" encoding="utf-8" standalone="yes"?>
<!DOCTYPE svg PUBLIC "-//W3C//DTD SVG 1.1//EN" "http://www.w3.org/Graphics/SVG/1.1/DTD/svg11.dtd">
<svg width="74" height="74" viewBox="0 0 74 74" style="fill:none;stroke:none;fill-rule:evenodd;clip-rule:evenodd;stroke-linecap:round;stroke-linejoin:round;stroke-miterlimit:1.5;" version="1.1" xmlns="http://www.w3.org/2000/svg" xmlns:xlink="http://www.w3.org/1999/xlink"><g id="items" style="isolation: isolate"><g id="blend" style="mix-blend-mode: normal"><g id="g-root-edit_v5h6ip1kmy51g-fill" data-item-order="1000000000" transform="translate(3, 3)"></g><g id="g-root-edit_v5h6ip1kmy51g-stroke" data-item-order="1000000000" transform="translate(3, 3)"><g id="edit_v5h6ip1kmy51g-stroke" fill="none" stroke-linecap="round" stroke-linejoin="round" stroke-miterlimit="4" stroke="#484848" stroke-width="2"><g><path d="M 32 47L 13 47C 11.895431 47 11 46.104568 11 45L 11 13C 11 11.895431 11.895431 11 13 11L 43 11C 44.104568 11 45 11.895431 45 13L 45 33M 41.400002 54.599998L 33 57L 35.400002 48.599998L 49.757999 34.242001C 51.414852 32.585144 54.101143 32.585144 55.757999 34.241997C 57.414852 35.898853 57.414852 38.585144 55.757999 40.241997ZM 47.958 36.042L 53.958 42.042M 35.400002 48.599998L 41.400002 54.599998M 22 19L 36 19M 18 25L 36 25M 18 31L 36 31M 18 37L 31 37"></path></g></g></g></g></g></svg>