<?xml version="1.0" encoding="utf-8" standalone="yes"?>
<!DOCTYPE svg PUBLIC "-//W3C//DTD SVG 1.1//EN" "http://www.w3.org/Graphics/SVG/1.1/DTD/svg11.dtd">
<svg width="74" height="74" viewBox="0 0 74 74" style="fill:none;stroke:none;fill-rule:evenodd;clip-rule:evenodd;stroke-linecap:round;stroke-linejoin:round;stroke-miterlimit:1.5;" version="1.1" xmlns="http://www.w3.org/2000/svg" xmlns:xlink="http://www.w3.org/1999/xlink"><g id="items" style="isolation: isolate"><g id="blend" style="mix-blend-mode: normal"><g id="g-root-text_1d2dn5s1hbo2yr-fill" data-item-order="1000000000" transform="translate(3, 3)"></g><g id="g-root-text_1d2dn5s1hbo2yr-stroke" data-item-order="1000000000" transform="translate(3, 3)"><g id="text_1d2dn5s1hbo2yr-stroke" fill="none" stroke-linecap="round" stroke-linejoin="round" stroke-miterlimit="4" stroke="#484848" stroke-width="2"><g><path d="M 15 11L 53 11C 53 11 57 11 57 15L 57 53C 57 53 57 57 53 57L 15 57C 15 57 11 57 11 53L 11 15C 11 15 11 11 15 11M 11 21L 57 21M 18 15.5C 18.276142 15.5 18.5 15.723858 18.5 16C 18.5 16.276142 18.276142 16.5 18 16.5C 17.723858 16.5 17.5 16.276142 17.5 16C 17.5 15.723858 17.723858 15.5 18 15.5M 24 15.5C 24.276142 15.5 24.5 15.723858 24.5 16C 24.5 16.276142 24.276142 16.5 24 16.5C 23.723858 16.5 23.5 16.276142 23.5 16C 23.5 15.723858 23.723858 15.5 24 15.5M 30 15.5C 30.276142 15.5 30.5 15.723858 30.5 16C 30.5 16.276142 30.276142 16.5 30 16.5C 29.723858 16.5 29.5 16.276142 29.5 16C 29.5 15.723858 29.723858 15.5 30 15.5M 18 27L 50 27C 50 27 51 27 51 28L 51 32C 51 32 51 33 50 33L 18 33C 18 33 17 33 17 32L 17 28C 17 28 17 27 18 27M 18 37L 22 37C 22 37 23 37 23 38L 23 50C 23 50 23 51 22 51L 18 51C 18 51 17 51 17 50L 17 38C 17 38 17 37 18 37M 29 39L 49 39M 29 43L 49 43M 29 47L 49 47M 29 51L 43 51"></path></g></g></g></g></g></svg>