<?xml version="1.0" encoding="utf-8" standalone="yes"?>
<!DOCTYPE svg PUBLIC "-//W3C//DTD SVG 1.1//EN" "http://www.w3.org/Graphics/SVG/1.1/DTD/svg11.dtd">
<svg width="74" height="74" viewBox="0 0 74 74" style="fill:none;stroke:none;fill-rule:evenodd;clip-rule:evenodd;stroke-linecap:round;stroke-linejoin:round;stroke-miterlimit:1.5;" version="1.1" xmlns="http://www.w3.org/2000/svg" xmlns:xlink="http://www.w3.org/1999/xlink"><g id="items" style="isolation: isolate"><g id="blend" style="mix-blend-mode: normal"><g id="g-root-brow_4jtmy81k3fuv9-fill" data-item-order="1000000000" transform="translate(3, 3)"></g><g id="g-root-brow_4jtmy81k3fuv9-stroke" data-item-order="1000000000" transform="translate(3, 3)"><g id="brow_4jtmy81k3fuv9-stroke" fill="none" stroke-linecap="round" stroke-linejoin="round" stroke-miterlimit="4" stroke="#484848" stroke-width="2"><g><path d="M 11 19L 51 19M 17 14.5C 16.723858 14.5 16.5 14.723858 16.5 15C 16.5 15.276142 16.723858 15.5 17 15.5C 17.276142 15.5 17.5 15.276142 17.5 15C 17.5 14.723858 17.276142 14.5 17 14.5L 17 14.5M 21 14.5C 20.723858 14.5 20.5 14.723858 20.5 15C 20.5 15.276142 20.723858 15.5 21 15.5C 21.276142 15.5 21.5 15.276142 21.5 15C 21.5 14.723858 21.276142 14.5 21 14.5L 21 14.5M 25 14.5C 24.723858 14.5 24.5 14.723858 24.5 15C 24.5 15.276142 24.723858 15.5 25 15.5C 25.276142 15.5 25.5 15.276142 25.5 15C 25.5 14.723858 25.276142 14.5 25 14.5L 25 14.5M 25 43L 15 43C 12.790861 43 11 41.209137 11 39L 11 15C 11 12.790861 12.790861 11 15 11L 47 11C 49.209141 11 51 12.790861 51 15L 51 27M 43 57C 39 54 37 48 37 43C 37 38 39 32 43 29M 43 57C 47 54 49 48 49 43C 49 38 47 32 43 29M 30.348 37L 55.652 37M 30.348 49L 55.652 49M 29 43L 57 43M 29 43C 29.000002 50.731987 35.268013 57 43 57C 50.731987 57 57 50.731987 57 43C 57 35.268013 50.731987 29.000002 43 29.000002C 35.268013 29.000002 29.000002 35.268013 29.000002 43Z"></path></g></g></g></g></g></svg>