<?xml version="1.0" encoding="utf-8" standalone="yes"?>
<!DOCTYPE svg PUBLIC "-//W3C//DTD SVG 1.1//EN" "http://www.w3.org/Graphics/SVG/1.1/DTD/svg11.dtd">
<svg width="74" height="74" viewBox="0 0 74 74" style="fill:none;stroke:none;fill-rule:evenodd;clip-rule:evenodd;stroke-linecap:round;stroke-linejoin:round;stroke-miterlimit:1.5;" version="1.1" xmlns="http://www.w3.org/2000/svg" xmlns:xlink="http://www.w3.org/1999/xlink"><g id="items" style="isolation: isolate"><g id="blend" style="mix-blend-mode: normal"><g id="g-root-wenc_1qdtpoh1j9fmz3-fill" data-item-order="1000000000" transform="translate(3, 3)"></g><g id="g-root-wenc_1qdtpoh1j9fmz3-stroke" data-item-order="1000000000" transform="translate(3, 3)"><g id="wenc_1qdtpoh1j9fmz3-stroke" fill="none" stroke-linecap="round" stroke-linejoin="round" stroke-miterlimit="4" stroke="#484848" stroke-width="2"><g><path d="M 46.5 14.502C 44.377998 16.624001 40.419998 16.422001 37 13.002L 34 16L 50 32L 57 25ZM 33.877998 29.879999L 26.292 22.296C 27.663319 19.262985 27.013306 15.697762 24.65984 13.343851C 22.306376 10.98994 18.741274 10.339253 15.708 11.71L 20 16L 20 20L 16 20L 11.708 15.71C 10.33668 18.743015 10.986693 22.308239 13.340159 24.662149C 15.693624 27.01606 19.258726 27.666746 22.292 26.296L 29.878 33.879997M 34.122002 38.124001L 41.708 45.709999C 40.336681 48.743015 40.986694 52.308239 43.34016 54.662148C 45.693626 57.01606 49.258728 57.666748 52.292 56.296001L 48 52L 48 48L 52 48L 56.292 52.293999C 57.663319 49.260986 57.013306 45.695763 54.65984 43.34185C 52.306374 40.987938 48.741272 40.337254 45.708 41.708L 38.122002 34.122002M 40.877998 22.880001L 11.878 51.880001C 10.706498 53.052021 10.70671 54.951759 11.878473 56.123524C 13.050237 57.295288 14.949975 57.295498 16.122 56.123997L 45.122002 27.124001"></path></g></g></g></g></g></svg>