<?xml version="1.0" encoding="utf-8" standalone="yes"?>
<!DOCTYPE svg PUBLIC "-//W3C//DTD SVG 1.1//EN" "http://www.w3.org/Graphics/SVG/1.1/DTD/svg11.dtd">
<svg width="62" height="62" viewBox="0 0 62 62" style="fill:none;stroke:none;fill-rule:evenodd;clip-rule:evenodd;stroke-linecap:round;stroke-linejoin:round;stroke-miterlimit:1.5;" version="1.1" xmlns="http://www.w3.org/2000/svg" xmlns:xlink="http://www.w3.org/1999/xlink"><g id="items" style="isolation: isolate"><g id="blend" style="mix-blend-mode: normal"><g id="g-root-modu_4loyyo1if8g7b-fill" data-item-order="1000000000" transform="translate(3, 3)"></g><g id="g-root-modu_4loyyo1if8g7b-stroke" data-item-order="1000000000" transform="translate(3, 3)"><g id="modu_4loyyo1if8g7b-stroke" fill="none" stroke-linecap="round" stroke-linejoin="round" stroke-miterlimit="4" stroke="#484848" stroke-width="2"><g><path d="M 13.75 10.75L 42.25 10.75C 42.25 10.75 45.25 10.75 45.25 13.75L 45.25 42.25C 45.25 42.25 45.25 45.25 42.25 45.25L 13.75 45.25C 13.75 45.25 10.75 45.25 10.75 42.25L 10.75 13.75C 10.75 13.75 10.75 10.75 13.75 10.75M 10.75 18.25L 45.25 18.25M 16 14.125C 16.207108 14.125 16.375 14.292893 16.375 14.5C 16.375 14.707107 16.207108 14.875 16 14.875C 15.792893 14.875 15.625 14.707107 15.625 14.5C 15.625 14.292893 15.792893 14.125 16 14.125M 20.5 14.125C 20.707108 14.125 20.875 14.292893 20.875 14.5C 20.875 14.707107 20.707108 14.875 20.5 14.875C 20.292892 14.875 20.125 14.707107 20.125 14.5C 20.125 14.292893 20.292892 14.125 20.5 14.125M 25 14.125C 25.207108 14.125 25.375 14.292893 25.375 14.5C 25.375 14.707107 25.207108 14.875 25 14.875C 24.792892 14.875 24.625 14.707107 24.625 14.5C 24.625 14.292893 24.792892 14.125 25 14.125M 24.25 18.25L 24.25 45.25M 15.2965 22.75L 19.774 22.75M 15.2965 25.75L 19.774 25.75M 15.2965 28.75L 19.774 28.75M 15.2965 31.75L 19.774 31.75M 15.2965 34.75L 19.774 34.75M 15.2965 37.75L 19.774 37.75M 15.2965 40.75L 19.774 40.75M 29.5 22.75L 40 22.75C 40 22.75 40.75 22.75 40.75 23.5L 40.75 29.5C 40.75 29.5 40.75 30.25 40 30.25L 29.5 30.25C 29.5 30.25 28.75 30.25 28.75 29.5L 28.75 23.5C 28.75 23.5 28.75 22.75 29.5 22.75M 29.5 34.75L 32.5 34.75C 32.5 34.75 33.25 34.75 33.25 35.5L 33.25 37C 33.25 37 33.25 37.75 32.5 37.75L 29.5 37.75C 29.5 37.75 28.75 37.75 28.75 37L 28.75 35.5C 28.75 35.5 28.75 34.75 29.5 34.75M 37 34.75L 40 34.75C 40 34.75 40.75 34.75 40.75 35.5L 40.75 37C 40.75 37 40.75 37.75 40 37.75L 37 37.75C 37 37.75 36.25 37.75 36.25 37L 36.25 35.5C 36.25 35.5 36.25 34.75 37 34.75"></path></g></g></g></g></g></svg>