<?xml version="1.0" encoding="utf-8" standalone="yes"?>
<!DOCTYPE svg PUBLIC "-//W3C//DTD SVG 1.1//EN" "http://www.w3.org/Graphics/SVG/1.1/DTD/svg11.dtd">
<svg width="62" height="62" viewBox="0 0 62 62" style="fill:none;stroke:none;fill-rule:evenodd;clip-rule:evenodd;stroke-linecap:round;stroke-linejoin:round;stroke-miterlimit:1.5;" version="1.1" xmlns="http://www.w3.org/2000/svg" xmlns:xlink="http://www.w3.org/1999/xlink"><g id="items" style="isolation: isolate"><g id="blend" style="mix-blend-mode: normal"><g id="g-root-effe_145h8uo1hl42dk-fill" data-item-order="1000000000" transform="translate(3, 3)"></g><g id="g-root-effe_145h8uo1hl42dk-stroke" data-item-order="1000000000" transform="translate(3, 3)"><g id="effe_145h8uo1hl42dk-stroke" fill="none" stroke-linecap="round" stroke-linejoin="round" stroke-miterlimit="4" stroke="#484848" stroke-width="2"><g><path d="M 16.75 36.25L 13 36.25C 11.75736 36.25 10.75 35.242641 10.75 34L 10.75 13C 10.75 11.75736 11.75736 10.75 13 10.75L 26.5 10.75C 27.742641 10.75 28.75 11.75736 28.75 13L 28.75 19.75M 10.75 31.75L 16.75 31.75M 45.25 31.75L 45.25 25C 45.25 23.757359 44.242641 22.75 43 22.75L 42.25 22.75M 28.75 22.75L 22 22.75C 20.75736 22.75 19.75 23.757359 19.75 25L 19.75 38.5C 19.75 39.742641 20.75736 40.75 22 40.75L 30.25 40.75M 24.25 22.75L 24.25 40.75M 33.25 10.75L 37.75 10.75C 37.75 10.75 39.25 10.75 39.25 12.25L 39.25 22.75C 39.25 22.75 39.25 24.25 37.75 24.25L 33.25 24.25C 33.25 24.25 31.75 24.25 31.75 22.75L 31.75 12.25C 31.75 12.25 31.75 10.75 33.25 10.75M 31.75 21.25L 39.25 21.25M 45.25 45.25L 39.744999 39.744999M 36.220001 43.869999C 36.345886 44.228668 36.677368 44.474625 37.057125 44.491135C 37.436882 44.507645 37.788464 44.291389 37.945 43.945L 39.744999 39.744999L 43.945 37.945C 44.315666 37.784035 44.539959 37.402126 44.5 37C 44.487534 36.615379 44.235748 36.279659 43.869999 36.16L 34.150002 32.98C 33.818058 32.873291 33.454315 32.961216 33.207764 33.207764C 32.961216 33.454315 32.873291 33.818058 32.98 34.150002ZM 10.75 15.25L 28.75 15.25M 40.75 26.5L 40.75 30.25"></path></g></g></g></g></g></svg>