<?xml version="1.0" encoding="utf-8" standalone="yes"?>
<!DOCTYPE svg PUBLIC "-//W3C//DTD SVG 1.1//EN" "http://www.w3.org/Graphics/SVG/1.1/DTD/svg11.dtd">
<svg width="74" height="74" viewBox="0 0 74 74" style="fill:none;stroke:none;fill-rule:evenodd;clip-rule:evenodd;stroke-linecap:round;stroke-linejoin:round;stroke-miterlimit:1.5;" version="1.1" xmlns="http://www.w3.org/2000/svg" xmlns:xlink="http://www.w3.org/1999/xlink"><g id="items" style="isolation: isolate"><g id="blend" style="mix-blend-mode: normal"><g id="g-root-2_hx5nqo1i5bm68-fill" data-item-order="1000000000" transform="translate(3, 3)"></g><g id="g-root-2_hx5nqo1i5bm68-stroke" data-item-order="1000000000" transform="translate(3, 3)"><g id="2_hx5nqo1i5bm68-stroke" fill="none" stroke-linecap="round" stroke-linejoin="round" stroke-miterlimit="4" stroke="#484848" stroke-width="2"><g><path d="M 15.142858 11.714286L 52.857143 11.714286C 52.857143 11.714286 56.285713 11.714286 56.285713 15.142858L 56.285713 52.857143C 56.285713 52.857143 56.285713 56.285713 52.857143 56.285713L 15.142858 56.285713C 15.142858 56.285713 11.714286 56.285713 11.714286 52.857143L 11.714286 15.142858C 11.714286 15.142858 11.714286 11.714286 15.142858 11.714286M 11.714286 23.714287L 56.285713 23.714287M 25.428572 34L 20.285715 39.142857L 25.428572 44.285713M 44.285713 34L 49.428574 39.142857L 44.285713 44.285713M 32.285713 46L 37.428574 30.571428"></path></g></g></g></g></g></svg>