<?xml version="1.0" encoding="utf-8" standalone="yes"?>
<!DOCTYPE svg PUBLIC "-//W3C//DTD SVG 1.1//EN" "http://www.w3.org/Graphics/SVG/1.1/DTD/svg11.dtd">
<svg width="62" height="62" viewBox="0 0 62 62" style="fill:none;stroke:none;fill-rule:evenodd;clip-rule:evenodd;stroke-linecap:round;stroke-linejoin:round;stroke-miterlimit:1.5;" version="1.1" xmlns="http://www.w3.org/2000/svg" xmlns:xlink="http://www.w3.org/1999/xlink"><g id="items" style="isolation: isolate"><g id="blend" style="mix-blend-mode: normal"><g id="g-root-inte_m98bgf1h14veo-fill" data-item-order="1000000000" transform="translate(3, 3)"></g><g id="g-root-inte_m98bgf1h14veo-stroke" data-item-order="1000000000" transform="translate(3, 3)"><g id="inte_m98bgf1h14veo-stroke" fill="none" stroke-linecap="round" stroke-linejoin="round" stroke-miterlimit="4" stroke="#484848" stroke-width="2"><g><path d="M 13.857142 11.285714L 42.142857 11.285714C 42.142857 11.285714 44.714287 11.285714 44.714287 13.857142L 44.714287 42.142857C 44.714287 42.142857 44.714287 44.714287 42.142857 44.714287L 13.857142 44.714287C 13.857142 44.714287 11.285714 44.714287 11.285714 42.142857L 11.285714 13.857142C 11.285714 13.857142 11.285714 11.285714 13.857142 11.285714M 11.285714 20.285713L 44.714287 20.285713M 21.571428 28L 17.714285 31.857143L 21.571428 35.714287M 35.714287 28L 39.571426 31.857143L 35.714287 35.714287M 26.714285 37L 30.571428 25.428572"></path></g></g></g></g></g></svg>