<?xml version="1.0" encoding="utf-8" standalone="yes"?>
<!DOCTYPE svg PUBLIC "-//W3C//DTD SVG 1.1//EN" "http://www.w3.org/Graphics/SVG/1.1/DTD/svg11.dtd">
<svg width="74" height="74" viewBox="0 0 74 74" style="fill:none;stroke:none;fill-rule:evenodd;clip-rule:evenodd;stroke-linecap:round;stroke-linejoin:round;stroke-miterlimit:1.5;" version="1.1" xmlns="http://www.w3.org/2000/svg" xmlns:xlink="http://www.w3.org/1999/xlink"><g id="items" style="isolation: isolate"><g id="blend" style="mix-blend-mode: normal"><g id="g-root-clic_4gotq81jt4ydr-fill" data-item-order="1000000000" transform="translate(3, 3)"></g><g id="g-root-clic_4gotq81jt4ydr-stroke" data-item-order="1000000000" transform="translate(3, 3)"><g id="clic_4gotq81jt4ydr-stroke" fill="none" stroke-linecap="round" stroke-linejoin="round" stroke-miterlimit="4" stroke="#484848" stroke-width="2"><g><path d="M 55 57L 55 51.666C 54.998898 47.984928 52.015076 45.001106 48.334003 45.000004L 45 45L 45 36C 45 34.343147 43.656857 33 42 33C 40.343147 33 39 34.343147 39 36L 39 50L 36.422001 47.84C 35.538345 46.778507 33.961491 46.634342 32.900002 47.517998C 31.838509 48.401653 31.694344 49.978508 32.577999 51.040001L 37.535999 57M 29 57L 15 57C 12.790861 57 11 55.209141 11 53L 11 15C 11 12.790861 12.790861 11 15 11L 53 11C 55.209141 11 57 12.790861 57 15L 57 41M 11 20.998001L 57 20.998001M 18 26.997999L 30 26.997999C 30 26.997999 31 26.997999 31 27.997999L 31 41.998001C 31 41.998001 31 42.998001 30 42.998001L 18 42.998001C 18 42.998001 17 42.998001 17 41.998001L 17 27.997999C 17 27.997999 17 26.997999 18 26.997999M 21 33.998001C 21 35.654854 22.343147 36.998001 24 36.998001C 25.656855 36.998001 27 35.654854 27 33.998001C 27 32.341148 25.656855 30.998001 24 30.998001C 22.343147 30.998001 21 32.341148 21 33.998001M 29 43L 19 43C 18.749329 39.970428 20.974888 37.299755 24 37C 27.025112 37.299755 29.250671 39.970428 29 43ZM 18 46.998001L 26 46.998001M 18 50.998001L 26 50.998001M 18 15.498C 18.275883 15.498002 18.49963 15.721455 18.499996 15.997335C 18.500362 16.273216 18.277208 16.497263 18.001328 16.497997C 17.725449 16.498734 17.501102 16.275879 17.5 16C 17.499468 15.867045 17.551912 15.739354 17.645737 15.645153C 17.739563 15.550952 17.867044 15.497999 18 15.498M 24 15.498C 24.275883 15.498002 24.49963 15.721455 24.499996 15.997335C 24.500362 16.273216 24.277208 16.497263 24.001328 16.497997C 23.725449 16.498734 23.501102 16.275879 23.5 16C 23.499468 15.867045 23.55191 15.739354 23.645737 15.645153C 23.739563 15.550952 23.867044 15.497999 24 15.498M 30 15.498C 30.275881 15.498002 30.49963 15.721455 30.499996 15.997335C 30.500362 16.273216 30.277208 16.497263 30.001328 16.497997C 29.725447 16.498734 29.501104 16.275879 29.5 16C 29.5 15.723858 29.723858 15.5 30 15.5M 38 26.997999L 51 26.997999"></path></g></g></g></g></g></svg>