<?xml version="1.0" encoding="utf-8" standalone="yes"?>
<!DOCTYPE svg PUBLIC "-//W3C//DTD SVG 1.1//EN" "http://www.w3.org/Graphics/SVG/1.1/DTD/svg11.dtd">
<svg width="74" height="74" viewBox="0 0 74 74" style="fill:none;stroke:none;fill-rule:evenodd;clip-rule:evenodd;stroke-linecap:round;stroke-linejoin:round;stroke-miterlimit:1.5;" version="1.1" xmlns="http://www.w3.org/2000/svg" xmlns:xlink="http://www.w3.org/1999/xlink"><g id="items" style="isolation: isolate"><g id="blend" style="mix-blend-mode: normal"><g id="g-root-1_92r2nl1hli3uq-fill" data-item-order="1000000000" transform="translate(3, 3)"></g><g id="g-root-1_92r2nl1hli3uq-stroke" data-item-order="1000000000" transform="translate(3, 3)"><g id="1_92r2nl1hli3uq-stroke" fill="none" stroke-linecap="round" stroke-linejoin="round" stroke-miterlimit="4" stroke="#484848" stroke-width="2"><g><path d="M 23 56L 27 52L 23 48M 12 27.958C 11.995503 29.623558 13.334539 30.98134 15 31L 33 31C 34.665001 30.980259 36.003407 29.623114 36 27.958L 36 16C 36 14.343145 34.656853 13 33 13L 15 13C 13.343145 13 12 14.343145 12 16ZM 12 25L 36 25M 19 35L 29 35M 24 31L 24 35M 38 33C 38 31.89543 38.895432 31 40 31L 52 31C 53.104568 31 54 31.89543 54 33L 54 55C 54 56.104568 53.104568 57 52 57L 40 57C 38.895432 57 38 56.104568 38 55ZM 15 42C 15 47.522846 19.477154 52 25 52L 27 52M 47 12L 43 16L 47 20M 55 26C 55 20.477154 50.52285 16 45 16L 43 16M 38 49L 54 49M 46 52.5C 45.723858 52.5 45.5 52.723858 45.5 53C 45.5 53.276142 45.723858 53.5 46 53.5C 46.276142 53.5 46.5 53.276142 46.5 53C 46.5 52.723858 46.276142 52.5 46 52.5L 46 52.5"></path></g></g></g></g></g></svg>