<?xml version="1.0" encoding="utf-8" standalone="yes"?>
<!DOCTYPE svg PUBLIC "-//W3C//DTD SVG 1.1//EN" "http://www.w3.org/Graphics/SVG/1.1/DTD/svg11.dtd">
<svg width="74" height="74" viewBox="0 0 74 74" style="fill:none;stroke:none;fill-rule:evenodd;clip-rule:evenodd;stroke-linecap:round;stroke-linejoin:round;stroke-miterlimit:1.5;" version="1.1" xmlns="http://www.w3.org/2000/svg" xmlns:xlink="http://www.w3.org/1999/xlink"><g id="items" style="isolation: isolate"><g id="blend" style="mix-blend-mode: normal"><g id="g-root-hier_dgp8q81l78k5m-fill" data-item-order="1000000000" transform="translate(3, 3)"></g><g id="g-root-hier_dgp8q81l78k5m-stroke" data-item-order="1000000000" transform="translate(3, 3)"><g id="hier_dgp8q81l78k5m-stroke" fill="none" stroke-linecap="round" stroke-linejoin="round" stroke-miterlimit="4" stroke="#484848" stroke-width="2"><g><path d="M 15 14L 53 14C 53 14 57 14 57 18L 57 50C 57 50 57 54 53 54L 15 54C 15 54 11 54 11 50L 11 18C 11 18 11 14 15 14M 11 24L 57 24M 18 18.5C 18.276142 18.5 18.5 18.723858 18.5 19C 18.5 19.276142 18.276142 19.5 18 19.5C 17.723858 19.5 17.5 19.276142 17.5 19C 17.5 18.723858 17.723858 18.5 18 18.5M 24 18.5C 24.276142 18.5 24.5 18.723858 24.5 19C 24.5 19.276142 24.276142 19.5 24 19.5C 23.723858 19.5 23.5 19.276142 23.5 19C 23.5 18.723858 23.723858 18.5 24 18.5M 30 18.5C 30.276142 18.5 30.5 18.723858 30.5 19C 30.5 19.276142 30.276142 19.5 30 19.5C 29.723858 19.5 29.5 19.276142 29.5 19C 29.5 18.723858 29.723858 18.5 30 18.5M 20 42L 24 42C 24 42 25 42 25 43L 25 47C 25 47 25 48 24 48L 20 48C 20 48 19 48 19 47L 19 43C 19 43 19 42 20 42M 31 33C 31 34.656853 32.343147 36 34 36C 35.656853 36 37 34.656853 37 33C 37 31.343147 35.656853 30 34 30C 32.343147 30 31 31.343147 31 33M 32 42L 36 42C 36 42 37 42 37 43L 37 47C 37 47 37 48 36 48L 32 48C 32 48 31 48 31 47L 31 43C 31 43 31 42 32 42M 44 42L 48 42C 48 42 49 42 49 43L 49 47C 49 47 49 48 48 48L 44 48C 44 48 43 48 43 47L 43 43C 43 43 43 42 44 42M 36.82 34L 43 34C 44.104568 34 45 34.895432 45 36L 45 42M 31.18 34L 25 34C 23.895432 34 23 34.895432 23 36L 23 42M 34 36L 34 42"></path></g></g></g></g></g></svg>