<?xml version="1.0" encoding="utf-8" standalone="yes"?>
<!DOCTYPE svg PUBLIC "-//W3C//DTD SVG 1.1//EN" "http://www.w3.org/Graphics/SVG/1.1/DTD/svg11.dtd">
<svg width="62" height="62" viewBox="0 0 62 62" style="fill:none;stroke:none;fill-rule:evenodd;clip-rule:evenodd;stroke-linecap:round;stroke-linejoin:round;stroke-miterlimit:1.5;" version="1.1" xmlns="http://www.w3.org/2000/svg" xmlns:xlink="http://www.w3.org/1999/xlink"><g id="items" style="isolation: isolate"><g id="blend" style="mix-blend-mode: normal"><g id="g-root-1_dccmc01kxelfl-fill" data-item-order="1000000000" transform="translate(3, 3)"></g><g id="g-root-1_dccmc01kxelfl-stroke" data-item-order="1000000000" transform="translate(3, 3)"><g id="1_dccmc01kxelfl-stroke" fill="none" stroke-linecap="round" stroke-linejoin="round" stroke-miterlimit="4" stroke="#484848" stroke-width="2"><g><path d="M 25.813 45.25L 12.313 45.25C 11.484573 45.25 10.813 44.578426 10.813 43.75L 10.813 12.25C 10.813 11.421573 11.484573 10.75 12.313 10.75L 32.252499 10.75C 32.651806 10.752862 33.033489 10.914822 33.313 11.2L 38.873501 16.75C 39.154823 17.031239 39.312912 17.412708 39.313 17.810499L 39.313 22.75M 19.813 20.506001L 15.313 25.006001L 19.813 29.506001M 24.313 20.506001L 28.813 25.006001L 24.313 29.506001M 27.313 36.256001C 27.313002 41.226563 31.342438 45.256001 36.313 45.256001C 41.283562 45.256001 45.313 41.226563 45.313 36.256001C 45.313 31.285439 41.283562 27.256001 36.313 27.256001C 31.342438 27.256001 27.313002 31.285439 27.313002 36.256001ZM 39.313 36.256001L 36.313 36.256001L 36.313 31.756001"></path></g></g></g></g></g></svg>