<?xml version="1.0" encoding="utf-8" standalone="yes"?>
<!DOCTYPE svg PUBLIC "-//W3C//DTD SVG 1.1//EN" "http://www.w3.org/Graphics/SVG/1.1/DTD/svg11.dtd">
<svg width="74" height="74" viewBox="0 0 74 74" style="fill:none;stroke:none;fill-rule:evenodd;clip-rule:evenodd;stroke-linecap:round;stroke-linejoin:round;stroke-miterlimit:1.5;" version="1.1" xmlns="http://www.w3.org/2000/svg" xmlns:xlink="http://www.w3.org/1999/xlink"><g id="items" style="isolation: isolate"><g id="blend" style="mix-blend-mode: normal"><g id="g-root-inte_4jtdf41k30d8n-fill" data-item-order="1000000000" transform="translate(3, 3)"></g><g id="g-root-inte_4jtdf41k30d8n-stroke" data-item-order="1000000000" transform="translate(3, 3)"><g id="inte_4jtdf41k30d8n-stroke" fill="none" stroke-linecap="round" stroke-linejoin="round" stroke-miterlimit="4" stroke="#484848" stroke-width="2"><g><path d="M 15 12L 53 12C 53 12 57 12 57 16L 57 52C 57 52 57 56 53 56L 15 56C 15 56 11 56 11 52L 11 16C 11 16 11 12 15 12M 11 22L 57 22M 18 16.5C 18.276142 16.5 18.5 16.723858 18.5 17C 18.5 17.276142 18.276142 17.5 18 17.5C 17.723858 17.5 17.5 17.276142 17.5 17C 17.5 16.723858 17.723858 16.5 18 16.5M 24 16.5C 24.276142 16.5 24.5 16.723858 24.5 17C 24.5 17.276142 24.276142 17.5 24 17.5C 23.723858 17.5 23.5 17.276142 23.5 17C 23.5 16.723858 23.723858 16.5 24 16.5M 30 16.5C 30.276142 16.5 30.5 16.723858 30.5 17C 30.5 17.276142 30.276142 17.5 30 17.5C 29.723858 17.5 29.5 17.276142 29.5 17C 29.5 16.723858 29.723858 16.5 30 16.5M 21.470001 47.5C 21.470001 48.052284 21.917715 48.5 22.470001 48.5C 23.022285 48.5 23.470001 48.052284 23.470001 47.5C 23.470001 46.947716 23.022285 46.5 22.470001 46.5C 21.917715 46.5 21.470001 46.947716 21.470001 47.5M 33 47.5C 33 48.052284 33.447716 48.5 34 48.5C 34.552284 48.5 35 48.052284 35 47.5C 35 46.947716 34.552284 46.5 34 46.5C 33.447716 46.5 33 46.947716 33 47.5M 44.529999 47.5C 44.529999 48.052284 44.977715 48.5 45.529999 48.5C 46.082283 48.5 46.529999 48.052284 46.529999 47.5C 46.529999 46.947716 46.082283 46.5 45.529999 46.5C 44.977715 46.5 44.529999 46.947716 44.529999 47.5M 22.470001 31L 18.470001 35L 22.470001 39M 45.529999 31L 49.529999 35L 45.529999 39"></path></g></g></g></g></g></svg>