<?xml version="1.0" encoding="utf-8" standalone="yes"?>
<!DOCTYPE svg PUBLIC "-//W3C//DTD SVG 1.1//EN" "http://www.w3.org/Graphics/SVG/1.1/DTD/svg11.dtd">
<svg width="74" height="74" viewBox="0 0 74 74" style="fill:none;stroke:none;fill-rule:evenodd;clip-rule:evenodd;stroke-linecap:round;stroke-linejoin:round;stroke-miterlimit:1.5;" version="1.1" xmlns="http://www.w3.org/2000/svg" xmlns:xlink="http://www.w3.org/1999/xlink"><g id="items" style="isolation: isolate"><g id="blend" style="mix-blend-mode: normal"><g id="g-root-edit_hu1dgw1izag3p-fill" data-item-order="1000000000" transform="translate(3, 3)"></g><g id="g-root-edit_hu1dgw1izag3p-stroke" data-item-order="1000000000" transform="translate(3, 3)"><g id="edit_hu1dgw1izag3p-stroke" fill="none" stroke-linecap="round" stroke-linejoin="round" stroke-miterlimit="4" stroke="#484848" stroke-width="2"><g><path d="M 11.034 19.007999L 51.034 19.007999M 17.034 14.512L 17.034 14.512M 17.034 14.512C 16.757858 14.512 16.534 14.735857 16.534 15.012C 16.534 15.288142 16.757858 15.512 17.034 15.512C 17.310143 15.512 17.534 15.288142 17.534 15.012C 17.534 14.735857 17.310143 14.512 17.034 14.512M 21.034 14.512L 21.034 14.512M 21.034 14.512C 20.757858 14.512 20.534 14.735857 20.534 15.012C 20.534 15.288142 20.757858 15.512 21.034 15.512C 21.310143 15.512 21.534 15.288142 21.534 15.012C 21.534 14.735857 21.310143 14.512 21.034 14.512M 25.034 14.512L 25.034 14.512M 25.034 14.512C 24.757858 14.512 24.534 14.735857 24.534 15.012C 24.534 15.288142 24.757858 15.512 25.034 15.512C 25.310143 15.512 25.534 15.288142 25.534 15.012C 25.534 14.735857 25.310143 14.512 25.034 14.512M 29.034 43L 15.034 43C 12.824862 43 11.034 41.209137 11.034 39L 11.034 15C 11.034 12.790861 12.824862 11 15.034 11L 47.034 11C 49.243137 11 51.034 12.790861 51.034 15L 51.034 29M 41.436001 54.610001L 33.035999 57.009998L 35.436001 48.610001L 49.799999 34.251999C 51.456852 32.595146 54.143143 32.595146 55.799999 34.251999C 57.456852 35.908852 57.456852 38.595146 55.799999 40.251999ZM 47.993999 36.052002L 53.993999 42.051998M 35.436001 48.610001L 41.436001 54.610001"></path></g></g></g></g></g></svg>